<?xml version="1.0" encoding="utf-8" standalone="no"?>
<!DOCTYPE svg PUBLIC "-//W3C//DTD SVG 1.1//EN"
  "http://www.w3.org/Graphics/SVG/1.1/DTD/svg11.dtd">
<svg xmlns:xlink="http://www.w3.org/1999/xlink" width="534.272592pt" height="344.386313pt" viewBox="0 0 534.272592 344.386313" xmlns="http://www.w3.org/2000/svg" version="1.1">
 <metadata>
  <rdf:RDF xmlns:dc="http://purl.org/dc/elements/1.1/" xmlns:cc="http://creativecommons.org/ns#" xmlns:rdf="http://www.w3.org/1999/02/22-rdf-syntax-ns#">
   <cc:Work>
    <dc:type rdf:resource="http://purl.org/dc/dcmitype/StillImage"/>
    <dc:date>2026-04-29T22:42:39.240551</dc:date>
    <dc:format>image/svg+xml</dc:format>
    <dc:creator>
     <cc:Agent>
      <dc:title>Matplotlib v3.10.5, https://matplotlib.org/</dc:title>
     </cc:Agent>
    </dc:creator>
   </cc:Work>
  </rdf:RDF>
 </metadata>
 <defs>
  <style type="text/css">*{stroke-linejoin: round; stroke-linecap: butt}</style>
 </defs>
 <g id="figure_1">
  <g id="patch_1">
   <path d="M 0 344.386313 
L 534.272592 344.386313 
L 534.272592 0 
L 0 0 
z
" style="fill: #ffffff"/>
  </g>
  <g id="axes_1">
   <g id="patch_2">
    <path d="M 27.82 301.243188 
L 428.716 301.243188 
L 428.716 30.487188 
L 27.82 30.487188 
z
" style="fill: #ffffff"/>
   </g>
   <g id="matplotlib.axis_1">
    <g id="xtick_1">
     <g id="line2d_1">
      <defs>
       <path id="m4342a8c4b4" d="M 0 0 
L 0 -5 
" style="stroke: #000000; stroke-width: 1.2"/>
      </defs>
      <g>
       <use xlink:href="#m4342a8c4b4" x="27.82" y="301.243188" style="stroke: #000000; stroke-width: 1.2"/>
      </g>
     </g>
     <g id="line2d_2">
      <defs>
       <path id="mec9374f327" d="M 0 0 
L 0 5 
" style="stroke: #000000; stroke-width: 1.2"/>
      </defs>
      <g>
       <use xlink:href="#mec9374f327" x="27.82" y="30.487188" style="stroke: #000000; stroke-width: 1.2"/>
      </g>
     </g>
     <g id="text_1">
      <text style="font-size: 11px; font-family: 'Times New Roman', 'Times', 'DejaVu Serif', serif; text-anchor: middle" x="27.82" y="315.881313" transform="rotate(-0 27.82 315.881313)">300</text>
     </g>
    </g>
    <g id="xtick_2">
     <g id="line2d_3">
      <g>
       <use xlink:href="#m4342a8c4b4" x="100.710182" y="301.243188" style="stroke: #000000; stroke-width: 1.2"/>
      </g>
     </g>
     <g id="line2d_4">
      <g>
       <use xlink:href="#mec9374f327" x="100.710182" y="30.487188" style="stroke: #000000; stroke-width: 1.2"/>
      </g>
     </g>
     <g id="text_2">
      <text style="font-size: 11px; font-family: 'Times New Roman', 'Times', 'DejaVu Serif', serif; text-anchor: middle" x="100.710182" y="315.881313" transform="rotate(-0 100.710182 315.881313)">400</text>
     </g>
    </g>
    <g id="xtick_3">
     <g id="line2d_5">
      <g>
       <use xlink:href="#m4342a8c4b4" x="173.600364" y="301.243188" style="stroke: #000000; stroke-width: 1.2"/>
      </g>
     </g>
     <g id="line2d_6">
      <g>
       <use xlink:href="#mec9374f327" x="173.600364" y="30.487188" style="stroke: #000000; stroke-width: 1.2"/>
      </g>
     </g>
     <g id="text_3">
      <text style="font-size: 11px; font-family: 'Times New Roman', 'Times', 'DejaVu Serif', serif; text-anchor: middle" x="173.600364" y="315.881313" transform="rotate(-0 173.600364 315.881313)">500</text>
     </g>
    </g>
    <g id="xtick_4">
     <g id="line2d_7">
      <g>
       <use xlink:href="#m4342a8c4b4" x="246.490545" y="301.243188" style="stroke: #000000; stroke-width: 1.2"/>
      </g>
     </g>
     <g id="line2d_8">
      <g>
       <use xlink:href="#mec9374f327" x="246.490545" y="30.487188" style="stroke: #000000; stroke-width: 1.2"/>
      </g>
     </g>
     <g id="text_4">
      <text style="font-size: 11px; font-family: 'Times New Roman', 'Times', 'DejaVu Serif', serif; text-anchor: middle" x="246.490545" y="315.881313" transform="rotate(-0 246.490545 315.881313)">600</text>
     </g>
    </g>
    <g id="xtick_5">
     <g id="line2d_9">
      <g>
       <use xlink:href="#m4342a8c4b4" x="319.380727" y="301.243188" style="stroke: #000000; stroke-width: 1.2"/>
      </g>
     </g>
     <g id="line2d_10">
      <g>
       <use xlink:href="#mec9374f327" x="319.380727" y="30.487188" style="stroke: #000000; stroke-width: 1.2"/>
      </g>
     </g>
     <g id="text_5">
      <text style="font-size: 11px; font-family: 'Times New Roman', 'Times', 'DejaVu Serif', serif; text-anchor: middle" x="319.380727" y="315.881313" transform="rotate(-0 319.380727 315.881313)">700</text>
     </g>
    </g>
    <g id="xtick_6">
     <g id="line2d_11">
      <g>
       <use xlink:href="#m4342a8c4b4" x="392.270909" y="301.243188" style="stroke: #000000; stroke-width: 1.2"/>
      </g>
     </g>
     <g id="line2d_12">
      <g>
       <use xlink:href="#mec9374f327" x="392.270909" y="30.487188" style="stroke: #000000; stroke-width: 1.2"/>
      </g>
     </g>
     <g id="text_6">
      <text style="font-size: 11px; font-family: 'Times New Roman', 'Times', 'DejaVu Serif', serif; text-anchor: middle" x="392.270909" y="315.881313" transform="rotate(-0 392.270909 315.881313)">800</text>
     </g>
    </g>
    <g id="text_7">
     <text style="font-size: 13px; font-family: 'Times New Roman', 'Times', 'DejaVu Serif', serif; text-anchor: middle" x="228.268" y="337.261156" transform="rotate(-0 228.268 337.261156)">Wavelength (nm)</text>
    </g>
   </g>
   <g id="matplotlib.axis_2">
    <g id="ytick_1">
     <g id="line2d_13">
      <defs>
       <path id="ma44b03f727" d="M 0 0 
L 5 0 
" style="stroke: #000000; stroke-width: 1.2"/>
      </defs>
      <g>
       <use xlink:href="#ma44b03f727" x="27.82" y="284.320938" style="stroke: #000000; stroke-width: 1.2"/>
      </g>
     </g>
     <g id="line2d_14">
      <defs>
       <path id="m1eaea68c65" d="M 0 0 
L -5 0 
" style="stroke: #000000; stroke-width: 1.2"/>
      </defs>
      <g>
       <use xlink:href="#m1eaea68c65" x="428.716" y="284.320938" style="stroke: #000000; stroke-width: 1.2"/>
      </g>
     </g>
     <g id="text_8">
      <text style="font-size: 11px; font-family: 'Times New Roman', 'Times', 'DejaVu Serif', serif; text-anchor: end" x="20.82" y="288.14" transform="rotate(-0 20.82 288.14)">0</text>
     </g>
    </g>
    <g id="ytick_2">
     <g id="line2d_15">
      <g>
       <use xlink:href="#ma44b03f727" x="27.82" y="242.015312" style="stroke: #000000; stroke-width: 1.2"/>
      </g>
     </g>
     <g id="line2d_16">
      <g>
       <use xlink:href="#m1eaea68c65" x="428.716" y="242.015312" style="stroke: #000000; stroke-width: 1.2"/>
      </g>
     </g>
     <g id="text_9">
      <text style="font-size: 11px; font-family: 'Times New Roman', 'Times', 'DejaVu Serif', serif; text-anchor: end" x="20.82" y="245.834375" transform="rotate(-0 20.82 245.834375)">20</text>
     </g>
    </g>
    <g id="ytick_3">
     <g id="line2d_17">
      <g>
       <use xlink:href="#ma44b03f727" x="27.82" y="199.709688" style="stroke: #000000; stroke-width: 1.2"/>
      </g>
     </g>
     <g id="line2d_18">
      <g>
       <use xlink:href="#m1eaea68c65" x="428.716" y="199.709688" style="stroke: #000000; stroke-width: 1.2"/>
      </g>
     </g>
     <g id="text_10">
      <text style="font-size: 11px; font-family: 'Times New Roman', 'Times', 'DejaVu Serif', serif; text-anchor: end" x="20.82" y="203.52875" transform="rotate(-0 20.82 203.52875)">40</text>
     </g>
    </g>
    <g id="ytick_4">
     <g id="line2d_19">
      <g>
       <use xlink:href="#ma44b03f727" x="27.82" y="157.404063" style="stroke: #000000; stroke-width: 1.2"/>
      </g>
     </g>
     <g id="line2d_20">
      <g>
       <use xlink:href="#m1eaea68c65" x="428.716" y="157.404063" style="stroke: #000000; stroke-width: 1.2"/>
      </g>
     </g>
     <g id="text_11">
      <text style="font-size: 11px; font-family: 'Times New Roman', 'Times', 'DejaVu Serif', serif; text-anchor: end" x="20.82" y="161.223125" transform="rotate(-0 20.82 161.223125)">60</text>
     </g>
    </g>
    <g id="ytick_5">
     <g id="line2d_21">
      <g>
       <use xlink:href="#ma44b03f727" x="27.82" y="115.098437" style="stroke: #000000; stroke-width: 1.2"/>
      </g>
     </g>
     <g id="line2d_22">
      <g>
       <use xlink:href="#m1eaea68c65" x="428.716" y="115.098437" style="stroke: #000000; stroke-width: 1.2"/>
      </g>
     </g>
     <g id="text_12">
      <text style="font-size: 11px; font-family: 'Times New Roman', 'Times', 'DejaVu Serif', serif; text-anchor: end" x="20.82" y="118.9175" transform="rotate(-0 20.82 118.9175)">80</text>
     </g>
    </g>
    <g id="ytick_6">
     <g id="line2d_23">
      <g>
       <use xlink:href="#ma44b03f727" x="27.82" y="72.792812" style="stroke: #000000; stroke-width: 1.2"/>
      </g>
     </g>
     <g id="line2d_24">
      <g>
       <use xlink:href="#m1eaea68c65" x="428.716" y="72.792812" style="stroke: #000000; stroke-width: 1.2"/>
      </g>
     </g>
     <g id="text_13">
      <text style="font-size: 11px; font-family: 'Times New Roman', 'Times', 'DejaVu Serif', serif; text-anchor: end" x="20.82" y="76.611875" transform="rotate(-0 20.82 76.611875)">100</text>
     </g>
    </g>
   </g>
   <g id="line2d_25">
    <path d="M 27.82 269.92961 
L 31.474327 269.539337 
L 35.128653 259.587368 
L 38.728438 246.464428 
L 42.382765 236.268538 
L 46.037091 220.803959 
L 49.691418 206.656552 
L 53.345745 196.607015 
L 57.000071 190.557779 
L 60.599856 181.435141 
L 64.254182 171.531956 
L 67.908509 163.72649 
L 71.562836 154.311147 
L 75.217163 145.09094 
L 78.816947 139.529546 
L 82.471274 130.065418 
L 86.1256 122.259952 
L 89.779927 114.698407 
L 93.434254 106.649021 
L 97.08858 99.672886 
L 100.688365 93.818786 
L 104.342692 88.647665 
L 107.997018 83.769249 
L 111.651345 80.744631 
L 115.305672 77.720013 
L 118.905456 75.427157 
L 122.559783 73.914848 
L 126.21411 72.890381 
L 129.868436 71.865913 
L 133.522763 71.621993 
L 137.17709 71.963482 
L 140.776874 72.06105 
L 144.431201 72.304971 
L 148.085527 73.768496 
L 151.739854 73.622143 
L 155.394181 74.207553 
L 158.993965 76.012567 
L 162.648292 76.451625 
L 166.302619 77.232171 
L 169.956945 79.378674 
L 173.611272 80.647063 
L 177.265599 81.915451 
L 180.865383 82.988702 
L 184.51971 83.866817 
L 188.174037 86.159673 
L 191.828363 87.18414 
L 195.48269 86.842651 
L 199.082474 88.598881 
L 202.736801 89.086722 
L 206.391128 90.062406 
L 210.045455 90.647816 
L 213.699781 91.086873 
L 217.354108 91.233226 
L 220.953892 91.330794 
L 224.608219 91.818636 
L 228.262546 91.623499 
L 231.916872 91.721067 
L 235.571199 92.599182 
L 239.170984 93.86757 
L 242.82531 94.550549 
L 246.479637 95.818937 
L 250.133964 97.38003 
L 253.78829 98.502066 
L 257.442617 99.965591 
L 261.042402 101.185195 
L 264.696728 100.990058 
L 268.351055 100.551 
L 272.005382 100.014375 
L 275.659708 98.209361 
L 279.259493 96.20921 
L 282.913819 94.550549 
L 286.568146 92.69675 
L 290.222473 91.623499 
L 293.8768 91.038089 
L 297.531126 91.428362 
L 301.130911 92.306477 
L 304.785237 93.818786 
L 308.439564 96.404347 
L 312.093891 98.843555 
L 315.748217 102.06331 
L 319.348002 105.185496 
L 323.002329 108.697955 
L 326.656655 111.868926 
L 330.310982 114.600839 
L 333.965309 116.747342 
L 337.619635 119.040198 
L 341.21942 121.235485 
L 344.873747 122.601442 
L 348.528073 124.113751 
L 352.1824 125.333355 
L 355.836727 126.748095 
L 359.436511 127.723779 
L 363.090838 130.065418 
L 366.745164 132.602195 
L 370.399491 136.700064 
L 374.053818 146.798386 
L 377.708145 161.287282 
L 381.307929 182.069335 
L 384.962256 205.583301 
L 388.616582 225.97508 
L 392.270909 244.708198 
L 395.925236 258.075059 
L 399.52502 268.075812 
L 403.179347 274.2714 
L 406.833674 279.247385 
L 410.488 281.345104 
L 414.142327 282.12565 
L 417.796654 283.198902 
L 421.396438 283.686743 
L 425.050765 283.930664 
L 428.705092 284.028233 
" clip-path="url(#pab1b813380)" style="fill: none; stroke: #000000; stroke-width: 1.7; stroke-linecap: round"/>
   </g>
   <g id="line2d_26">
    <path d="M 27.82 272.320034 
L 31.474327 283.052549 
L 35.128653 270.51502 
L 38.728438 258.270195 
L 42.382765 240.854249 
L 46.037091 225.487239 
L 49.691418 210.412933 
L 53.345745 198.753518 
L 57.000071 188.167355 
L 60.599856 179.727695 
L 64.254182 169.336668 
L 67.908509 161.043361 
L 71.562836 151.77437 
L 75.217163 141.480912 
L 78.816947 136.797633 
L 82.471274 127.431074 
L 86.1256 119.625608 
L 89.779927 111.527437 
L 93.434254 102.30723 
L 97.08858 96.404347 
L 100.688365 89.428212 
L 104.342692 84.061954 
L 107.997018 80.50071 
L 111.651345 76.646761 
L 115.305672 73.914848 
L 118.905456 71.426856 
L 122.559783 69.670626 
L 126.21411 68.792511 
L 129.868436 68.402238 
L 133.522763 67.328986 
L 137.17709 67.231418 
L 140.776874 67.670476 
L 144.431201 67.670476 
L 148.085527 69.47549 
L 151.739854 68.841295 
L 155.394181 69.963331 
L 158.993965 71.036583 
L 162.648292 71.865913 
L 166.302619 73.036733 
L 169.956945 74.207553 
L 173.611272 75.671078 
L 177.265599 76.98825 
L 180.865383 78.061502 
L 184.51971 79.085969 
L 188.174037 80.842199 
L 191.828363 81.915451 
L 195.48269 82.695997 
L 199.082474 85.18399 
L 202.736801 85.7694 
L 206.391128 86.159673 
L 210.045455 86.501162 
L 213.699781 87.574413 
L 217.354108 88.062255 
L 220.953892 87.525629 
L 224.608219 87.76955 
L 228.262546 87.720766 
L 231.916872 87.964687 
L 235.571199 88.696449 
L 239.170984 89.476996 
L 242.82531 90.6966 
L 246.479637 91.525931 
L 250.133964 93.965139 
L 253.78829 94.794469 
L 257.442617 96.989757 
L 261.042402 97.770303 
L 264.696728 97.770303 
L 268.351055 97.038541 
L 272.005382 96.697052 
L 275.659708 95.03839 
L 279.259493 92.647966 
L 282.913819 90.599032 
L 286.568146 88.501313 
L 290.222473 87.671982 
L 293.8768 86.549946 
L 297.531126 86.842651 
L 301.130911 88.35496 
L 304.785237 89.574564 
L 308.439564 92.208909 
L 312.093891 94.696901 
L 315.748217 97.867872 
L 319.348002 101.770605 
L 323.002329 105.185496 
L 326.656655 108.941876 
L 330.310982 111.771358 
L 333.965309 114.112997 
L 337.619635 116.405853 
L 341.21942 118.308435 
L 344.873747 120.162233 
L 348.528073 120.991564 
L 352.1824 122.357521 
L 355.836727 123.918614 
L 359.436511 124.650376 
L 363.090838 127.382289 
L 366.745164 129.96785 
L 370.399491 133.773015 
L 374.053818 144.407962 
L 377.708145 159.287131 
L 381.307929 180.508241 
L 384.962256 204.558833 
L 388.616582 225.682375 
L 392.270909 245.000903 
L 395.925236 258.5629 
L 399.52502 268.563653 
L 403.179347 275.051947 
L 406.833674 279.735226 
L 410.488 281.54024 
L 414.142327 282.272003 
L 417.796654 283.345254 
L 421.396438 283.88188 
L 425.050765 284.125801 
L 428.705092 284.272153 
" clip-path="url(#pab1b813380)" style="fill: none; stroke: #e41a1c; stroke-width: 1.7; stroke-linecap: round"/>
   </g>
   <g id="line2d_27">
    <path d="M 27.82 272.905444 
L 31.474327 269.539337 
L 35.128653 262.026576 
L 38.728438 253.099074 
L 42.382765 237.878416 
L 46.037091 222.755325 
L 49.691418 205.729653 
L 53.345745 194.997137 
L 57.000071 187.923434 
L 60.599856 179.191069 
L 64.254182 169.775726 
L 67.908509 162.262965 
L 71.562836 153.384248 
L 75.217163 144.115257 
L 78.816947 140.212524 
L 82.471274 131.13867 
L 86.1256 123.918614 
L 89.779927 115.576522 
L 93.434254 107.234431 
L 97.08858 101.087626 
L 100.688365 94.940822 
L 104.342692 90.306327 
L 107.997018 86.01332 
L 111.651345 83.281407 
L 115.305672 80.110437 
L 118.905456 77.378524 
L 122.559783 75.768646 
L 126.21411 74.695395 
L 129.868436 74.158769 
L 133.522763 73.914848 
L 137.17709 73.134302 
L 140.776874 73.963632 
L 144.431201 73.81728 
L 148.085527 74.744179 
L 151.739854 74.744179 
L 155.394181 76.012567 
L 158.993965 76.890682 
L 162.648292 78.012718 
L 166.302619 78.500559 
L 169.956945 80.159221 
L 173.611272 81.817882 
L 177.265599 83.281407 
L 180.865383 84.01317 
L 184.51971 84.988853 
L 188.174037 86.696299 
L 191.828363 87.623198 
L 195.48269 88.208608 
L 199.082474 89.623348 
L 202.736801 90.062406 
L 206.391128 90.842952 
L 210.045455 90.940521 
L 213.699781 92.208909 
L 217.354108 92.69675 
L 220.953892 93.087024 
L 224.608219 93.379729 
L 228.262546 94.111491 
L 231.916872 94.404196 
L 235.571199 96.160426 
L 239.170984 96.648268 
L 242.82531 96.745836 
L 246.479637 97.38003 
L 250.133964 97.233677 
L 253.78829 96.892188 
L 257.442617 96.453131 
L 261.042402 95.672584 
L 264.696728 94.794469 
L 268.351055 94.696901 
L 272.005382 93.916355 
L 275.659708 93.379729 
L 279.259493 93.526081 
L 282.913819 91.086873 
L 286.568146 94.843254 
L 290.222473 96.892188 
L 293.8768 98.55085 
L 297.531126 100.648569 
L 301.130911 103.624403 
L 304.785237 105.526985 
L 308.439564 108.405251 
L 312.093891 110.307833 
L 315.748217 112.405552 
L 319.348002 113.576372 
L 323.002329 115.039897 
L 326.656655 115.918011 
L 330.310982 116.405853 
L 333.965309 116.113148 
L 337.619635 116.064364 
L 341.21942 115.722875 
L 344.873747 115.43017 
L 348.528073 115.576522 
L 352.1824 115.186249 
L 355.836727 115.039897 
L 359.436511 115.088681 
L 363.090838 116.210716 
L 366.745164 117.674241 
L 370.399491 120.162233 
L 374.053818 127.187153 
L 377.708145 137.968452 
L 381.307929 154.359931 
L 384.962256 176.215235 
L 388.616582 198.363245 
L 392.270909 222.657757 
L 395.925236 242.415343 
L 399.52502 258.514116 
L 403.179347 269.002711 
L 406.833674 277.149666 
L 410.488 280.36942 
L 414.142327 281.54024 
L 417.796654 283.003765 
L 421.396438 283.686743 
L 425.050765 283.979448 
L 428.705092 284.320938 
" clip-path="url(#pab1b813380)" style="fill: none; stroke: #377eb8; stroke-width: 1.7; stroke-linecap: round"/>
   </g>
   <g id="line2d_28">
    <path d="M 27.82 278.95468 
L 31.474327 275.149515 
L 35.128653 264.612136 
L 38.728438 251.928254 
L 42.382765 237.293006 
L 46.037091 218.852593 
L 49.691418 205.144243 
L 53.345745 195.777684 
L 57.000071 186.069636 
L 60.599856 177.483623 
L 64.254182 167.141381 
L 67.908509 159.482268 
L 71.562836 150.408414 
L 75.217163 140.505229 
L 78.816947 136.163439 
L 82.471274 126.113901 
L 86.1256 118.747493 
L 89.779927 110.649322 
L 93.434254 102.453583 
L 97.08858 95.428664 
L 100.688365 90.159974 
L 104.342692 84.696148 
L 107.997018 80.110437 
L 111.651345 76.890682 
L 115.305672 73.280654 
L 118.905456 71.719561 
L 122.559783 69.329137 
L 126.21411 68.597375 
L 129.868436 68.011965 
L 133.522763 67.13385 
L 137.17709 66.987497 
L 140.776874 66.792361 
L 144.431201 66.938713 
L 148.085527 68.060749 
L 151.739854 67.475339 
L 155.394181 68.158317 
L 158.993965 69.71941 
L 162.648292 69.963331 
L 166.302619 70.841446 
L 169.956945 72.548892 
L 173.611272 73.23187 
L 177.265599 74.890531 
L 180.865383 75.866215 
L 184.51971 77.037035 
L 188.174037 78.695696 
L 191.828363 80.012868 
L 195.48269 79.9153 
L 199.082474 82.159372 
L 202.736801 82.647213 
L 206.391128 83.476544 
L 210.045455 84.110738 
L 213.699781 84.891285 
L 217.354108 85.7694 
L 220.953892 86.159673 
L 224.608219 85.964536 
L 228.262546 86.208457 
L 231.916872 85.818184 
L 235.571199 86.59873 
L 239.170984 86.257241 
L 242.82531 86.062104 
L 246.479637 86.891435 
L 250.133964 87.964687 
L 253.78829 89.086722 
L 257.442617 91.428362 
L 261.042402 93.916355 
L 264.696728 95.379879 
L 268.351055 96.989757 
L 272.005382 97.96544 
L 275.659708 97.721519 
L 279.259493 97.184893 
L 282.913819 96.062858 
L 286.568146 93.770002 
L 290.222473 92.647966 
L 293.8768 90.208758 
L 297.531126 88.501313 
L 301.130911 87.818334 
L 304.785237 86.647514 
L 308.439564 86.306025 
L 312.093891 86.696299 
L 315.748217 88.35496 
L 319.348002 90.257542 
L 323.002329 93.233376 
L 326.656655 96.257994 
L 330.310982 99.185044 
L 333.965309 101.624252 
L 337.619635 104.844007 
L 341.21942 107.917409 
L 344.873747 110.356617 
L 348.528073 112.795825 
L 352.1824 115.381386 
L 355.836727 117.77181 
L 359.436511 119.869529 
L 363.090838 122.69901 
L 366.745164 125.674844 
L 370.399491 130.162987 
L 374.053818 141.139423 
L 377.708145 156.799139 
L 381.307929 180.166752 
L 384.962256 206.900473 
L 388.616582 229.048482 
L 392.270909 248.610931 
L 395.925236 261.782655 
L 399.52502 270.612588 
L 403.179347 276.369119 
L 406.833674 280.174284 
L 410.488 281.881729 
L 414.142327 282.515924 
L 417.796654 283.345254 
L 421.396438 283.784312 
L 425.050765 283.979448 
L 428.705092 283.979448 
" clip-path="url(#pab1b813380)" style="fill: none; stroke: #4daf4a; stroke-width: 1.7; stroke-linecap: round"/>
   </g>
   <g id="line2d_29">
    <path d="M 27.82 283.247686 
L 31.474327 274.125048 
L 35.128653 262.953475 
L 38.728438 251.830686 
L 42.382765 235.048934 
L 46.037091 218.998945 
L 49.691418 204.607617 
L 53.345745 194.119023 
L 57.000071 185.825715 
L 60.599856 177.190918 
L 64.254182 167.48287 
L 67.908509 159.384699 
L 71.562836 150.554766 
L 75.217163 140.505229 
L 78.816947 135.578029 
L 82.471274 126.748095 
L 86.1256 119.918313 
L 89.779927 110.16148 
L 93.434254 101.380331 
L 97.08858 95.03839 
L 100.688365 89.086722 
L 104.342692 84.549795 
L 107.997018 79.768948 
L 111.651345 76.305272 
L 115.305672 72.939165 
L 118.905456 70.939014 
L 122.559783 69.036432 
L 126.21411 67.96318 
L 129.868436 67.13385 
L 133.522763 66.938713 
L 137.17709 66.109382 
L 140.776874 66.743576 
L 144.431201 65.914246 
L 148.085527 67.670476 
L 151.739854 67.377771 
L 155.394181 67.328986 
L 158.993965 69.085216 
L 162.648292 69.426705 
L 166.302619 70.451173 
L 169.956945 71.865913 
L 173.611272 72.890381 
L 177.265599 74.597826 
L 180.865383 75.719862 
L 184.51971 76.500409 
L 188.174037 77.817581 
L 191.828363 79.183538 
L 195.48269 79.622595 
L 199.082474 81.232472 
L 202.736801 82.598429 
L 206.391128 83.378976 
L 210.045455 84.01317 
L 213.699781 84.8425 
L 217.354108 85.086421 
L 220.953892 85.623047 
L 224.608219 85.964536 
L 228.262546 87.037788 
L 231.916872 86.062104 
L 235.571199 86.01332 
L 239.170984 86.501162 
L 242.82531 86.452378 
L 246.479637 87.135356 
L 250.133964 88.501313 
L 253.78829 89.428212 
L 257.442617 91.379578 
L 261.042402 94.111491 
L 264.696728 95.379879 
L 268.351055 96.892188 
L 272.005382 97.477598 
L 275.659708 97.721519 
L 279.259493 97.087325 
L 282.913819 95.818937 
L 286.568146 93.86757 
L 290.222473 92.745535 
L 293.8768 89.964837 
L 297.531126 88.452528 
L 301.130911 87.76955 
L 304.785237 86.501162 
L 308.439564 86.59873 
L 312.093891 86.891435 
L 315.748217 88.208608 
L 319.348002 90.599032 
L 323.002329 92.891887 
L 326.656655 96.257994 
L 330.310982 99.526533 
L 333.965309 102.258446 
L 337.619635 104.941575 
L 341.21942 107.868625 
L 344.873747 110.405401 
L 348.528073 112.844609 
L 352.1824 115.332601 
L 355.836727 117.625457 
L 359.436511 119.625608 
L 363.090838 122.503873 
L 366.745164 125.528491 
L 370.399491 129.626361 
L 374.053818 141.090639 
L 377.708145 156.994276 
L 381.307929 180.264321 
L 384.962256 206.656552 
L 388.616582 228.706993 
L 392.270909 248.415795 
L 395.925236 261.782655 
L 399.52502 270.661372 
L 403.179347 276.369119 
L 406.833674 280.320636 
L 410.488 281.881729 
L 414.142327 282.515924 
L 417.796654 283.345254 
L 421.396438 283.833096 
L 425.050765 283.88188 
L 428.705092 284.077017 
" clip-path="url(#pab1b813380)" style="fill: none; stroke: #984ea3; stroke-width: 1.7; stroke-linecap: round"/>
   </g>
   <g id="line2d_30">
    <path d="M 27.82 270.807725 
L 31.474327 269.051495 
L 35.128653 257.97749 
L 38.728438 248.318226 
L 42.382765 232.317021 
L 46.037091 218.169614 
L 49.691418 202.265978 
L 53.345745 191.874951 
L 57.000071 185.045169 
L 60.599856 177.386055 
L 64.254182 167.726791 
L 67.908509 160.506735 
L 71.562836 151.969507 
L 75.217163 142.700516 
L 78.816947 137.139122 
L 82.471274 127.333505 
L 86.1256 118.845061 
L 89.779927 109.722423 
L 93.434254 100.502216 
L 97.08858 93.428513 
L 100.688365 86.647514 
L 104.342692 81.67153 
L 107.997018 77.037035 
L 111.651345 73.23187 
L 115.305672 70.060899 
L 118.905456 68.646159 
L 122.559783 66.792361 
L 126.21411 66.353303 
L 129.868436 65.280052 
L 133.522763 65.280052 
L 137.17709 64.694642 
L 140.776874 65.231267 
L 144.431201 65.96303 
L 148.085527 67.182634 
L 151.739854 67.036281 
L 155.394181 67.768044 
L 158.993965 69.329137 
L 162.648292 70.207252 
L 166.302619 71.524424 
L 169.956945 72.987949 
L 173.611272 74.012417 
L 177.265599 76.061351 
L 180.865383 76.695545 
L 184.51971 77.963934 
L 188.174037 79.817732 
L 191.828363 80.744631 
L 195.48269 81.08612 
L 199.082474 82.647213 
L 202.736801 83.574112 
L 206.391128 84.305875 
L 210.045455 85.232774 
L 213.699781 86.257241 
L 217.354108 86.647514 
L 220.953892 86.745083 
L 224.608219 86.793867 
L 228.262546 87.086572 
L 231.916872 86.745083 
L 235.571199 86.647514 
L 239.170984 86.257241 
L 242.82531 86.257241 
L 246.479637 86.842651 
L 250.133964 87.671982 
L 253.78829 89.037938 
L 257.442617 91.038089 
L 261.042402 93.184592 
L 264.696728 94.599333 
L 268.351055 96.550699 
L 272.005382 97.233677 
L 275.659708 97.672735 
L 279.259493 97.282462 
L 282.913819 95.867721 
L 286.568146 93.965139 
L 290.222473 92.306477 
L 293.8768 90.599032 
L 297.531126 88.842802 
L 301.130911 86.989004 
L 304.785237 85.866968 
L 308.439564 85.330342 
L 312.093891 85.623047 
L 315.748217 86.452378 
L 319.348002 88.501313 
L 323.002329 91.28201 
L 326.656655 94.013923 
L 330.310982 96.355563 
L 333.965309 98.697202 
L 337.619635 102.209662 
L 341.21942 105.087928 
L 344.873747 107.039294 
L 348.528073 110.893243 
L 352.1824 112.50312 
L 355.836727 114.991112 
L 359.436511 117.1864 
L 363.090838 119.430471 
L 366.745164 122.942931 
L 370.399491 126.894448 
L 374.053818 137.578179 
L 377.708145 153.872089 
L 381.307929 177.629976 
L 384.962256 204.851538 
L 388.616582 227.828878 
L 392.270909 247.684032 
L 395.925236 261.197245 
L 399.52502 270.319883 
L 403.179347 275.930062 
L 406.833674 280.223068 
L 410.488 281.832945 
L 414.142327 282.515924 
L 417.796654 283.345254 
L 421.396438 283.735528 
L 425.050765 283.88188 
L 428.705092 283.979448 
" clip-path="url(#pab1b813380)" style="fill: none; stroke: #ff7f00; stroke-width: 1.7; stroke-linecap: round"/>
   </g>
   <g id="patch_3">
    <path d="M 27.82 301.243188 
L 27.82 30.487187 
" style="fill: none; stroke: #000000; stroke-width: 1.25; stroke-linejoin: miter; stroke-linecap: square"/>
   </g>
   <g id="patch_4">
    <path d="M 428.716 301.243188 
L 428.716 30.487187 
" style="fill: none; stroke: #000000; stroke-width: 1.25; stroke-linejoin: miter; stroke-linecap: square"/>
   </g>
   <g id="patch_5">
    <path d="M 27.82 301.243188 
L 428.716 301.243188 
" style="fill: none; stroke: #000000; stroke-width: 1.25; stroke-linejoin: miter; stroke-linecap: square"/>
   </g>
   <g id="patch_6">
    <path d="M 27.82 30.487188 
L 428.716 30.487188 
" style="fill: none; stroke: #000000; stroke-width: 1.25; stroke-linejoin: miter; stroke-linecap: square"/>
   </g>
   <g id="text_14">
    <text style="font-size: 13px; font-family: 'Times New Roman', 'Times', 'DejaVu Serif', serif; text-anchor: start" x="23.81104" y="15.522386" transform="rotate(-0 23.81104 15.522386)">EQE (%)</text>
   </g>
   <g id="text_15">
    <text style="font-weight: 700; font-size: 15px; font-family: 'Times New Roman', 'Times', 'DejaVu Serif', serif; text-anchor: middle" x="228.268" y="14.487188" transform="rotate(-0 228.268 14.487188)">NBG EQE spectra</text>
   </g>
   <g id="legend_1">
    <g id="line2d_31">
     <path d="M 440.93392 43.777308 
L 454.05892 43.777308 
L 467.18392 43.777308 
" style="fill: none; stroke: #000000; stroke-width: 2; stroke-linecap: round"/>
    </g>
    <g id="text_16">
     <text style="font-size: 10.5px; font-family: 'Times New Roman', 'Times', 'DejaVu Serif', serif; text-anchor: start" x="475.58392" y="47.452308" transform="rotate(-0 475.58392 47.452308)">NBG Cell 1</text>
    </g>
    <g id="line2d_32">
     <path d="M 440.93392 58.623323 
L 454.05892 58.623323 
L 467.18392 58.623323 
" style="fill: none; stroke: #e41a1c; stroke-width: 2; stroke-linecap: round"/>
    </g>
    <g id="text_17">
     <text style="font-size: 10.5px; font-family: 'Times New Roman', 'Times', 'DejaVu Serif', serif; text-anchor: start" x="475.58392" y="62.298323" transform="rotate(-0 475.58392 62.298323)">NBG Cell 2</text>
    </g>
    <g id="line2d_33">
     <path d="M 440.93392 73.469339 
L 454.05892 73.469339 
L 467.18392 73.469339 
" style="fill: none; stroke: #377eb8; stroke-width: 2; stroke-linecap: round"/>
    </g>
    <g id="text_18">
     <text style="font-size: 10.5px; font-family: 'Times New Roman', 'Times', 'DejaVu Serif', serif; text-anchor: start" x="475.58392" y="77.144339" transform="rotate(-0 475.58392 77.144339)">NBG Cell 3</text>
    </g>
    <g id="line2d_34">
     <path d="M 440.93392 88.315354 
L 454.05892 88.315354 
L 467.18392 88.315354 
" style="fill: none; stroke: #4daf4a; stroke-width: 2; stroke-linecap: round"/>
    </g>
    <g id="text_19">
     <text style="font-size: 10.5px; font-family: 'Times New Roman', 'Times', 'DejaVu Serif', serif; text-anchor: start" x="475.58392" y="91.990354" transform="rotate(-0 475.58392 91.990354)">NBG Cell 4</text>
    </g>
    <g id="line2d_35">
     <path d="M 440.93392 103.16137 
L 454.05892 103.16137 
L 467.18392 103.16137 
" style="fill: none; stroke: #984ea3; stroke-width: 2; stroke-linecap: round"/>
    </g>
    <g id="text_20">
     <text style="font-size: 10.5px; font-family: 'Times New Roman', 'Times', 'DejaVu Serif', serif; text-anchor: start" x="475.58392" y="106.83637" transform="rotate(-0 475.58392 106.83637)">NBG Cell 5</text>
    </g>
    <g id="line2d_36">
     <path d="M 440.93392 118.007386 
L 454.05892 118.007386 
L 467.18392 118.007386 
" style="fill: none; stroke: #ff7f00; stroke-width: 2; stroke-linecap: round"/>
    </g>
    <g id="text_21">
     <text style="font-size: 10.5px; font-family: 'Times New Roman', 'Times', 'DejaVu Serif', serif; text-anchor: start" x="475.58392" y="121.682386" transform="rotate(-0 475.58392 121.682386)">NBG Cell 6</text>
    </g>
   </g>
  </g>
 </g>
 <defs>
  <clipPath id="pab1b813380">
   <rect x="27.82" y="30.487188" width="400.896" height="270.756"/>
  </clipPath>
 </defs>
</svg>
